<svg width="28" height="13" viewBox="0 0 28 13" fill="none" xmlns="http://www.w3.org/2000/svg">
<path d="M5.31806 2.06026C5.63101 1.65271 5.85455 1.10931 5.78749 0.565918C5.31806 0.588559 4.75922 0.882899 4.42392 1.2678C4.13332 1.60743 3.86508 2.17346 3.93214 2.69422C4.46863 2.76214 4.98276 2.4678 5.31806 2.06026ZM5.78749 2.83007C5.02747 2.78478 4.37921 3.26026 4.02156 3.26026C3.6639 3.26026 3.10506 2.85271 2.50151 2.85271C1.71914 2.87535 1.00382 3.30554 0.601457 4.03007C-0.203272 5.45648 0.377921 7.56214 1.18265 8.71686C1.56266 9.2829 2.03209 9.91686 2.63563 9.89421C3.21683 9.87157 3.44036 9.50931 4.13332 9.50931C4.82628 9.50931 5.02747 9.89422 5.65337 9.87157C6.27927 9.84893 6.68163 9.30554 7.06164 8.71686C7.50871 8.06025 7.68754 7.42629 7.68754 7.40365C7.66519 7.38101 6.4581 6.92818 6.4581 5.52441C6.43574 4.34705 7.39695 3.78101 7.44165 3.75837C6.92752 2.94327 6.07808 2.85271 5.78749 2.83007Z" fill="black"/>
<path d="M12.3594 1.22266C14.0136 1.22266 15.1536 2.37737 15.1536 4.03021C15.1536 5.70568 13.9912 6.8604 12.3147 6.8604H10.504V9.78116H9.18518V1.22266H12.3594ZM10.504 5.75097H12.0017C13.1418 5.75097 13.79 5.117 13.79 4.05285C13.79 2.96606 13.1418 2.35473 12.0017 2.35473H10.4817V5.75097H10.504ZM15.4889 8.03776C15.4889 6.95097 16.316 6.27172 17.7913 6.18115L19.4902 6.09059V5.61512C19.4902 4.91323 19.0208 4.50568 18.2607 4.50568C17.5231 4.50568 17.076 4.86794 16.9642 5.41134H15.7571C15.8242 4.27926 16.7854 3.44153 18.3054 3.44153C19.8031 3.44153 20.7643 4.23398 20.7643 5.50191V9.8038H19.5572V8.78493H19.5349C19.1772 9.48682 18.3949 9.91701 17.5901 9.91701C16.3383 9.91701 15.4889 9.1472 15.4889 8.03776ZM19.4902 7.47172V6.97361L17.9701 7.06417C17.2101 7.10946 16.7854 7.44908 16.7854 7.99248C16.7854 8.53587 17.2325 8.89814 17.9031 8.89814C18.7972 8.89814 19.4902 8.28682 19.4902 7.47172ZM21.882 12.1132V11.0717C21.9714 11.0944 22.195 11.0944 22.2844 11.0944C22.8656 11.0944 23.1785 10.8453 23.3797 10.2113C23.3797 10.1887 23.4915 9.82644 23.4915 9.82644L21.2561 3.57738H22.6197L24.1844 8.67172H24.2068L25.7715 3.57738H27.1127L24.8103 10.1661C24.2738 11.683 23.6703 12.1585 22.3961 12.1585C22.3067 12.1359 21.9938 12.1359 21.882 12.1132Z" fill="black"/>
</svg>
