<svg width="30" height="13" viewBox="0 0 30 13" fill="none" xmlns="http://www.w3.org/2000/svg">
<path d="M13.9157 6.55397V9.9746H12.8555V1.53077H15.6673C16.3455 1.5173 17.004 1.77991 17.4847 2.26472C18.4461 3.18048 18.5054 4.72246 17.6033 5.71228C17.5637 5.75269 17.5242 5.79309 17.4847 5.83349C16.9908 6.31157 16.385 6.55397 15.6673 6.55397H13.9157ZM13.9157 2.56773V5.51701H15.6936C16.0887 5.53048 16.4706 5.36887 16.7406 5.07933C17.2938 4.49352 17.2806 3.55082 16.7077 2.98521C16.4377 2.71587 16.0755 2.56773 15.6936 2.56773H13.9157Z" fill="#3C4043"/>
<path d="M20.6915 4.00879C21.4751 4.00879 22.0941 4.22426 22.5484 4.64847C23.0028 5.07268 23.2267 5.66523 23.2267 6.41265V9.97468H22.2126V9.17339H22.1665C21.7253 9.83328 21.1458 10.1632 20.4149 10.1632C19.7959 10.1632 19.2691 9.97468 18.8543 9.5976C18.446 9.24746 18.2155 8.72898 18.2287 8.18357C18.2287 7.58428 18.4526 7.11294 18.8938 6.75606C19.335 6.39919 19.9276 6.22411 20.6651 6.22411C21.2973 6.22411 21.8109 6.34532 22.2192 6.57426V6.32512C22.2192 5.95477 22.0611 5.60463 21.7846 5.36222C21.5014 5.10635 21.1392 4.96495 20.7639 4.96495C20.1713 4.96495 19.7037 5.22082 19.3613 5.73257L18.4262 5.13329C18.9267 4.38587 19.684 4.00879 20.6915 4.00879ZM19.3218 8.20377C19.3218 8.48657 19.4535 8.74918 19.6708 8.91079C19.9079 9.09932 20.1976 9.20033 20.4939 9.19359C20.9417 9.19359 21.3697 9.01179 21.6858 8.68858C22.0348 8.3519 22.2126 7.95463 22.2126 7.49675C21.8834 7.22741 21.4224 7.09274 20.8298 7.09947C20.4017 7.09947 20.0396 7.20721 19.7498 7.41595C19.4667 7.62468 19.3218 7.88729 19.3218 8.20377Z" fill="#3C4043"/>
<path fill-rule="evenodd" clip-rule="evenodd" d="M29.0478 4.19727L25.5051 12.5132H24.412L25.729 9.60428L23.4045 4.19727H24.5569L26.2361 8.34511H26.2558L27.8955 4.19727H29.0478Z" fill="#3C4043"/>
<path fill-rule="evenodd" clip-rule="evenodd" d="M9.62896 5.81366C9.62896 5.48372 9.60262 5.15377 9.54994 4.83057H5.07874V6.69574H7.6403C7.53494 7.29503 7.19252 7.83371 6.69206 8.17038V9.38241H8.21977C9.11533 8.54072 9.62896 7.29503 9.62896 5.81366Z" fill="#4285F4"/>
<path fill-rule="evenodd" clip-rule="evenodd" d="M5.07875 10.5542C6.35623 10.5542 7.43617 10.1232 8.21978 9.38253L6.69206 8.1705C6.26404 8.46677 5.71749 8.63511 5.07875 8.63511C3.84077 8.63511 2.79376 7.77995 2.41841 6.63525H0.844604V7.88769C1.64797 9.52393 3.28763 10.5542 5.07875 10.5542Z" fill="#34A853"/>
<path fill-rule="evenodd" clip-rule="evenodd" d="M2.41833 6.63491C2.22078 6.03563 2.22078 5.38248 2.41833 4.77646V3.53076H0.844508C0.166251 4.89766 0.166251 6.51371 0.844508 7.88061L2.41833 6.63491Z" fill="#FBBC04"/>
<path fill-rule="evenodd" clip-rule="evenodd" d="M5.07875 2.77677C5.757 2.7633 6.40891 3.02591 6.8962 3.50398L8.2527 2.11688C7.39007 1.29539 6.25746 0.844248 5.07875 0.857715C3.28763 0.857715 1.64797 1.89468 0.844604 3.53092L2.41841 4.78335C2.79376 3.63192 3.84077 2.77677 5.07875 2.77677Z" fill="#EA4335"/>
</svg>
