<svg id="svg" version="1.1" xmlns="http://www.w3.org/2000/svg" xmlns:xlink="http://www.w3.org/1999/xlink" width="400" height="71.87833511205976" viewBox="0, 0, 400,71.87833511205976"><g id="svgg"><path id="path0" d="M35.750 0.247 C 30.076 1.676,26.028 5.585,24.528 11.083 C 24.104 12.636,24.000 14.226,24.000 19.124 L 24.000 24.304 18.042 24.372 C 14.437 24.413,11.886 24.510,11.583 24.617 C 11.308 24.715,10.746 24.895,10.333 25.017 C 9.921 25.139,9.396 25.335,9.167 25.452 C 8.938 25.569,8.664 25.665,8.560 25.666 C 8.134 25.668,5.178 27.787,4.166 28.815 C 2.855 30.147,1.990 31.431,1.006 33.500 C 0.888 33.748,0.530 34.950,0.181 36.269 C 0.056 36.743,-0.000 42.359,-0.000 54.394 L 0.000 71.833 17.170 71.833 C 35.760 71.833,34.423 71.887,37.250 71.025 C 40.401 70.064,44.067 66.725,45.558 63.458 C 46.793 60.754,46.997 59.196,46.999 52.473 L 47.000 47.529 53.042 47.461 L 59.083 47.394 60.661 46.850 C 65.280 45.258,68.818 41.893,70.253 37.727 C 71.112 35.236,71.056 36.525,71.119 17.625 L 71.178 0.000 53.881 0.018 C 40.577 0.033,36.391 0.085,35.750 0.247 M65.661 18.375 C 65.654 32.936,65.701 32.274,64.482 34.959 C 63.920 36.197,63.214 37.159,62.007 38.333 C 58.924 41.332,56.886 42.000,50.823 42.000 L 47.000 42.000 47.000 33.167 L 47.000 24.333 38.232 24.333 L 29.465 24.333 29.538 19.875 L 29.612 15.417 30.125 13.959 C 31.332 10.532,33.538 8.097,36.833 6.552 C 39.291 5.401,39.750 5.368,53.625 5.349 L 65.667 5.333 65.661 18.375 M93.942 6.792 C 93.705 7.652,91.330 17.549,90.992 19.083 C 90.891 19.542,90.749 20.104,90.675 20.333 C 90.602 20.563,90.460 21.125,90.361 21.583 C 90.198 22.334,89.350 25.866,88.000 31.417 C 87.156 34.886,85.831 40.390,85.673 41.083 C 85.452 42.049,85.345 42.482,85.095 43.417 C 84.973 43.875,84.822 44.550,84.760 44.917 C 84.697 45.283,84.578 45.808,84.494 46.083 C 84.295 46.738,83.885 48.400,83.488 50.167 C 83.313 50.946,83.097 51.846,83.009 52.167 C 82.921 52.487,82.698 53.387,82.514 54.167 C 82.186 55.550,80.994 60.493,79.981 64.667 C 79.703 65.813,79.445 66.844,79.409 66.959 C 79.356 67.126,81.927 67.160,92.130 67.126 L 104.917 67.083 105.022 66.417 C 105.080 66.050,105.219 65.337,105.332 64.833 C 105.548 63.864,105.681 63.207,105.987 61.583 C 106.091 61.033,106.212 60.415,106.258 60.208 L 106.340 59.833 112.648 59.833 L 118.956 59.833 119.058 60.458 C 119.114 60.802,119.228 61.383,119.310 61.750 C 119.393 62.117,119.652 63.354,119.886 64.500 C 120.120 65.646,120.362 66.715,120.424 66.875 C 120.598 67.328,145.568 67.328,145.440 66.875 C 145.395 66.715,145.310 66.321,145.252 66.000 C 145.194 65.679,144.885 64.329,144.566 63.000 C 144.027 60.753,143.566 58.815,143.138 57.000 C 143.041 56.587,142.899 56.025,142.822 55.750 C 142.745 55.475,142.564 54.688,142.420 54.000 C 142.276 53.313,142.078 52.450,141.982 52.083 C 141.769 51.277,141.578 50.500,141.349 49.500 C 140.877 47.450,140.306 45.021,140.174 44.500 C 140.092 44.179,139.682 42.454,139.262 40.667 C 138.842 38.879,138.198 36.142,137.829 34.583 C 137.112 31.552,136.909 30.682,136.639 29.500 C 136.545 29.087,136.410 28.563,136.338 28.333 C 136.267 28.104,136.127 27.542,136.027 27.083 C 135.928 26.625,135.736 25.762,135.600 25.167 C 135.375 24.179,135.180 23.349,134.152 19.000 C 133.968 18.221,133.751 17.321,133.669 17.000 C 133.588 16.679,133.444 16.079,133.349 15.667 C 133.254 15.254,132.919 13.829,132.604 12.500 C 132.289 11.171,131.907 9.521,131.754 8.833 C 131.602 8.146,131.402 7.340,131.309 7.042 L 131.141 6.500 112.582 6.500 C 95.048 6.500,94.018 6.516,93.942 6.792 M147.278 6.611 C 147.217 6.672,147.167 20.322,147.167 36.944 L 147.167 67.167 159.583 67.167 L 172.000 67.167 172.000 58.250 L 172.000 49.333 176.333 49.333 L 180.667 49.333 180.667 58.250 L 180.667 67.167 193.000 67.167 L 205.333 67.167 205.333 36.833 L 205.333 6.500 193.000 6.500 L 180.667 6.500 180.667 16.667 L 180.667 26.833 176.333 26.833 L 172.000 26.833 172.000 16.667 L 172.000 6.500 159.694 6.500 C 152.926 6.500,147.339 6.550,147.278 6.611 M211.167 36.833 L 211.167 67.167 223.498 67.167 L 235.830 67.167 235.873 59.577 L 235.917 51.988 236.881 53.702 C 238.544 56.659,238.684 56.901,239.097 57.538 C 239.319 57.880,239.500 58.202,239.500 58.254 C 239.500 58.307,239.762 58.760,240.083 59.261 C 240.404 59.763,240.667 60.216,240.667 60.269 C 240.667 60.322,240.806 60.564,240.976 60.808 C 241.146 61.051,241.475 61.587,241.706 62.000 C 241.937 62.413,242.406 63.237,242.750 63.833 C 243.093 64.429,243.522 65.179,243.704 65.500 C 243.885 65.821,244.182 66.327,244.363 66.625 L 244.694 67.167 258.847 67.167 C 266.631 67.167,273.000 67.136,273.000 67.099 C 273.000 66.945,269.347 60.847,268.998 60.417 C 268.923 60.325,268.604 59.800,268.288 59.250 C 267.972 58.700,267.018 57.125,266.169 55.750 C 265.320 54.375,264.309 52.725,263.922 52.083 C 263.535 51.442,262.598 49.904,261.840 48.667 C 261.082 47.429,260.031 45.704,259.506 44.833 C 258.980 43.962,258.041 42.425,257.420 41.417 C 254.903 37.336,255.094 37.741,255.443 37.215 C 255.613 36.959,255.894 36.469,256.069 36.125 C 256.243 35.781,256.449 35.500,256.526 35.500 C 256.603 35.500,256.667 35.429,256.667 35.342 C 256.667 35.191,257.779 33.366,260.444 29.147 C 261.116 28.082,261.667 27.132,261.667 27.036 C 261.667 26.940,261.733 26.836,261.814 26.806 C 261.895 26.775,262.298 26.188,262.709 25.500 C 263.932 23.455,266.020 20.053,267.363 17.917 C 268.544 16.040,270.328 13.177,270.789 12.421 C 270.902 12.235,271.042 11.952,271.100 11.792 C 271.158 11.631,271.272 11.500,271.353 11.500 C 271.434 11.500,271.500 11.387,271.500 11.250 C 271.500 11.112,271.563 11.000,271.640 11.000 C 271.717 11.000,271.873 10.794,271.986 10.542 C 272.100 10.290,272.637 9.396,273.180 8.555 C 273.722 7.714,274.167 6.908,274.167 6.763 C 274.167 6.525,272.746 6.500,259.422 6.500 L 244.676 6.500 244.272 7.375 C 243.863 8.258,242.053 12.001,239.292 17.667 C 237.580 21.182,236.094 24.299,235.954 24.667 C 235.902 24.804,235.854 20.773,235.846 15.708 L 235.833 6.500 223.500 6.500 L 211.167 6.500 211.167 36.833 M289.031 8.126 C 288.819 9.019,288.391 10.800,288.081 12.083 C 286.827 17.266,285.826 21.462,285.656 22.250 C 285.557 22.708,285.415 23.271,285.342 23.500 C 285.268 23.729,285.127 24.292,285.027 24.750 C 284.928 25.208,284.465 27.158,283.998 29.083 C 282.452 35.466,281.987 37.408,281.805 38.250 C 281.706 38.708,281.565 39.271,281.492 39.500 C 281.418 39.729,281.268 40.329,281.158 40.833 C 281.048 41.337,280.896 41.938,280.819 42.167 C 280.743 42.396,280.631 42.883,280.570 43.250 C 280.510 43.617,280.360 44.292,280.238 44.750 C 279.985 45.697,279.974 45.740,279.515 47.667 C 278.540 51.761,277.751 55.026,277.159 57.417 C 276.796 58.883,276.431 60.421,276.347 60.833 C 276.164 61.738,275.716 63.561,275.506 64.250 C 275.423 64.525,275.280 65.162,275.189 65.667 C 275.099 66.171,274.973 66.715,274.911 66.875 C 274.804 67.151,275.473 67.167,287.549 67.167 L 300.300 67.167 300.475 66.375 C 300.572 65.940,300.696 65.321,300.751 65.000 C 300.873 64.289,301.214 62.644,301.675 60.542 L 301.867 59.667 308.097 59.667 L 314.327 59.667 314.423 60.125 C 314.476 60.377,314.588 60.883,314.673 61.250 C 314.868 62.091,315.261 64.010,315.605 65.792 L 315.870 67.167 328.454 67.167 L 341.039 67.167 340.936 66.792 C 340.789 66.253,339.982 62.895,339.165 59.417 C 338.777 57.767,338.165 55.179,337.806 53.667 C 337.447 52.154,337.048 50.467,336.919 49.917 C 336.791 49.367,336.455 47.942,336.173 46.750 C 335.891 45.558,335.582 44.246,335.486 43.833 C 335.391 43.421,335.247 42.821,335.167 42.500 C 335.087 42.179,334.943 41.579,334.849 41.167 C 334.299 38.775,333.800 36.666,333.647 36.083 C 333.356 34.973,333.200 34.308,332.923 33.000 C 332.777 32.313,332.589 31.488,332.506 31.167 C 332.423 30.846,332.277 30.246,332.182 29.833 C 331.886 28.545,330.830 24.112,330.673 23.500 C 330.591 23.179,330.329 22.054,330.091 21.000 C 329.853 19.946,329.590 18.821,329.506 18.500 C 329.423 18.179,329.277 17.579,329.182 17.167 C 329.087 16.754,328.753 15.329,328.439 14.000 C 328.125 12.671,327.666 10.721,327.420 9.667 C 327.174 8.612,326.892 7.469,326.793 7.125 L 326.614 6.500 308.015 6.501 L 289.417 6.501 289.031 8.126 M348.333 6.685 C 345.484 7.441,344.600 8.035,343.524 9.917 C 342.535 11.646,342.583 10.258,342.583 36.917 L 342.583 61.417 342.973 62.582 C 343.708 64.776,345.053 66.067,347.435 66.865 L 348.583 67.250 370.500 67.250 L 392.417 67.250 393.667 66.843 C 397.051 65.739,398.726 64.316,399.812 61.617 C 399.943 61.292,400.000 58.439,400.000 52.159 L 400.000 43.167 387.833 43.167 L 375.667 43.167 375.667 47.417 L 375.667 51.667 371.333 51.667 L 367.000 51.667 367.000 36.917 L 367.000 22.167 371.333 22.167 L 375.667 22.167 375.667 26.000 L 375.667 29.833 383.708 29.833 C 388.131 29.833,393.606 29.783,395.875 29.723 L 400.000 29.613 399.998 21.515 C 399.996 12.792,399.963 12.403,399.109 10.945 C 397.947 8.963,396.004 7.672,393.050 6.919 L 391.417 6.503 370.167 6.517 C 357.669 6.524,348.676 6.594,348.333 6.685 M114.997 32.583 C 115.391 34.233,115.823 35.996,115.956 36.500 C 116.090 37.004,116.270 37.717,116.357 38.083 C 116.444 38.450,116.584 39.012,116.668 39.333 C 116.753 39.654,116.928 40.404,117.058 41.000 C 117.187 41.596,117.348 42.215,117.415 42.375 C 117.528 42.649,117.243 42.667,112.750 42.667 C 108.257 42.667,107.972 42.649,108.085 42.375 C 108.214 42.061,108.367 41.488,108.741 39.917 C 108.872 39.367,109.053 38.654,109.142 38.333 C 109.319 37.703,110.302 33.926,111.332 29.917 C 111.685 28.542,112.131 26.854,112.323 26.167 C 112.515 25.479,112.719 24.700,112.778 24.434 C 112.889 23.934,113.231 25.189,114.997 32.583 M308.739 25.375 C 309.376 28.088,311.742 37.831,312.271 39.917 C 312.503 40.833,312.755 41.827,312.829 42.125 L 312.965 42.667 308.213 42.667 L 303.461 42.667 303.552 42.292 C 303.602 42.085,303.719 41.654,303.812 41.333 C 304.080 40.409,304.318 39.495,304.572 38.417 C 304.779 37.542,304.963 36.833,305.680 34.167 C 305.766 33.846,305.944 33.133,306.074 32.583 C 306.205 32.033,306.386 31.321,306.477 31.000 C 306.568 30.679,306.980 29.086,307.393 27.460 C 308.375 23.597,308.336 23.658,308.739 25.375 M24.000 38.667 L 24.000 47.500 32.764 47.500 L 41.528 47.500 41.461 52.042 C 41.382 57.359,40.889 59.306,39.092 61.391 C 38.868 61.652,38.661 61.914,38.634 61.974 C 38.578 62.094,36.763 63.760,36.227 64.183 C 35.875 64.460,34.552 65.164,33.833 65.456 C 33.604 65.549,33.199 65.713,32.934 65.820 C 31.504 66.398,29.272 66.494,17.208 66.497 L 5.333 66.500 5.333 53.758 C 5.333 40.658,5.346 40.368,6.023 38.235 C 7.124 34.764,10.487 31.487,14.010 30.451 C 15.830 29.915,16.318 29.867,20.125 29.851 L 24.000 29.833 24.000 38.667 M41.500 35.917 L 41.500 42.000 35.500 42.000 L 29.500 42.000 29.500 35.917 L 29.500 29.833 35.500 29.833 L 41.500 29.833 41.500 35.917 " stroke="none" fill="#1cac64" fill-rule="evenodd"></path><path id="path1" d="" stroke="none" fill="#20ac64" fill-rule="evenodd"></path><path id="path2" d="" stroke="none" fill="#20ac64" fill-rule="evenodd"></path><path id="path3" d="" stroke="none" fill="#20ac64" fill-rule="evenodd"></path><path id="path4" d="" stroke="none" fill="#20ac64" fill-rule="evenodd"></path></g></svg>