<?xml version="1.0" encoding="UTF-8"?>
<svg xmlns="http://www.w3.org/2000/svg" xmlns:xlink="http://www.w3.org/1999/xlink" width="49pt" height="33pt" viewBox="0 0 49 33" version="1.1">
<g id="surface1">
<path style=" stroke:none;fill-rule:nonzero;fill:rgb(100%,37.254902%,0%);fill-opacity:1;" d="M 18.039062 5.792969 L 30.964844 5.792969 L 30.964844 27.203125 L 18.039062 27.203125 Z M 18.039062 5.792969 "/>
<path style=" stroke:none;fill-rule:nonzero;fill:rgb(92.156863%,0%,10.588235%);fill-opacity:1;" d="M 19.371094 16.5 C 19.367188 12.324219 21.257812 8.375 24.5 5.796875 C 18.992188 1.410156 11.089844 2.050781 6.339844 7.265625 C 1.589844 12.480469 1.589844 20.523438 6.339844 25.738281 C 11.089844 30.953125 18.992188 31.59375 24.5 27.207031 C 21.257812 24.625 19.367188 20.679688 19.371094 16.5 Z M 19.371094 16.5 "/>
<path style=" stroke:none;fill-rule:nonzero;fill:rgb(96.862745%,61.960784%,10.588235%);fill-opacity:1;" d="M 44.9375 24.9375 L 44.9375 24.5 L 45.125 24.5 L 45.125 24.40625 L 44.679688 24.40625 L 44.679688 24.5 L 44.855469 24.5 L 44.855469 24.9375 Z M 45.800781 24.9375 L 45.800781 24.40625 L 45.664062 24.40625 L 45.507812 24.785156 L 45.351562 24.40625 L 45.21875 24.40625 L 45.21875 24.9375 L 45.316406 24.9375 L 45.316406 24.535156 L 45.460938 24.878906 L 45.5625 24.878906 L 45.707031 24.535156 L 45.707031 24.9375 Z M 45.800781 24.9375 "/>
<path style=" stroke:none;fill-rule:nonzero;fill:rgb(96.862745%,61.960784%,10.588235%);fill-opacity:1;" d="M 46.222656 16.5 C 46.222656 21.710938 43.285156 26.46875 38.664062 28.746094 C 34.039062 31.023438 28.539062 30.425781 24.5 27.203125 C 27.738281 24.621094 29.628906 20.675781 29.628906 16.5 C 29.628906 12.320312 27.738281 8.375 24.5 5.792969 C 28.539062 2.570312 34.039062 1.972656 38.664062 4.25 C 43.285156 6.527344 46.222656 11.285156 46.222656 16.496094 Z M 46.222656 16.5 "/>
</g>
</svg>
