<?xml version="1.0" encoding="UTF-8"?>
<svg xmlns="http://www.w3.org/2000/svg" xmlns:xlink="http://www.w3.org/1999/xlink" width="49pt" height="16pt" viewBox="0 0 49 16" version="1.1">
<g id="surface1">
<path style=" stroke:none;fill-rule:nonzero;fill:rgb(0%,34.117647%,62.352941%);fill-opacity:1;" d="M 21.234375 15.753906 L 17.265625 15.753906 L 19.746094 0.28125 L 23.71875 0.28125 Z M 21.234375 15.753906 "/>
<path style=" stroke:none;fill-rule:nonzero;fill:rgb(0%,34.117647%,62.352941%);fill-opacity:1;" d="M 35.625 0.660156 C 34.839844 0.34375 33.597656 0 32.0625 0 C 28.144531 0 25.382812 2.105469 25.367188 5.117188 C 25.332031 7.339844 27.34375 8.574219 28.84375 9.316406 C 30.382812 10.074219 30.902344 10.566406 30.902344 11.242188 C 30.886719 12.277344 29.664062 12.757812 28.519531 12.757812 C 26.933594 12.757812 26.085938 12.511719 24.792969 11.933594 L 24.273438 11.6875 L 23.714844 15.160156 C 24.648438 15.585938 26.363281 15.964844 28.144531 15.984375 C 32.308594 15.984375 35.019531 13.910156 35.050781 10.699219 C 35.070312 8.9375 34.007812 7.589844 31.71875 6.484375 C 30.332031 5.777344 29.480469 5.300781 29.480469 4.574219 C 29.5 3.917969 30.199219 3.242188 31.769531 3.242188 C 33.058594 3.210938 34.007812 3.523438 34.726562 3.835938 L 35.085938 4 Z M 35.625 0.660156 "/>
<path style=" stroke:none;fill-rule:nonzero;fill:rgb(0%,34.117647%,62.352941%);fill-opacity:1;" d="M 40.898438 10.269531 C 41.226562 9.382812 42.484375 5.941406 42.484375 5.941406 C 42.46875 5.976562 42.8125 5.035156 43.007812 4.460938 L 43.285156 5.792969 C 43.285156 5.792969 44.035156 9.496094 44.199219 10.269531 C 43.578125 10.269531 41.683594 10.269531 40.898438 10.269531 Z M 45.800781 0.28125 L 42.730469 0.28125 C 41.78125 0.28125 41.0625 0.558594 40.65625 1.5625 L 34.757812 15.753906 L 38.921875 15.753906 C 38.921875 15.753906 39.609375 13.84375 39.757812 13.429688 C 40.214844 13.429688 44.265625 13.429688 44.851562 13.429688 C 44.96875 13.972656 45.328125 15.753906 45.328125 15.753906 L 49.003906 15.753906 Z M 45.800781 0.28125 "/>
<path style=" stroke:none;fill-rule:nonzero;fill:rgb(0%,34.117647%,62.352941%);fill-opacity:1;" d="M 13.949219 0.28125 L 10.0625 10.832031 L 9.636719 8.691406 C 8.917969 6.222656 6.664062 3.539062 4.148438 2.207031 L 7.710938 15.734375 L 11.90625 15.734375 L 18.148438 0.28125 Z M 13.949219 0.28125 "/>
<path style=" stroke:none;fill-rule:nonzero;fill:rgb(98.039216%,65.098039%,10.196078%);fill-opacity:1;" d="M 6.453125 0.28125 L 0.0664062 0.28125 L 0 0.59375 C 4.980469 1.878906 8.28125 4.972656 9.636719 8.691406 L 8.25 1.582031 C 8.019531 0.59375 7.316406 0.3125 6.453125 0.28125 Z M 6.453125 0.28125 "/>
</g>
</svg>
